<?xml version="1.0" encoding="utf-8"?>
<svg xmlns="http://www.w3.org/2000/svg" xmlns:xlink="http://www.w3.org/1999/xlink" style="margin: auto; background: none; display: block; shape-rendering: auto;" width="134px" height="134px" viewBox="0 0 100 100" preserveAspectRatio="xMidYMid">
<g transform="rotate(0 50 50)">
  <rect x="47.5" y="26.5" rx="2.5" ry="5.5" width="5" height="11" fill="#ede327">
    <animate attributeName="opacity" values="1;0" keyTimes="0;1" dur="0.27932960893854747s" begin="-0.25393600812595224s" repeatCount="indefinite"></animate>
  </rect>
</g><g transform="rotate(32.72727272727273 50 50)">
  <rect x="47.5" y="26.5" rx="2.5" ry="5.5" width="5" height="11" fill="#ede327">
    <animate attributeName="opacity" values="1;0" keyTimes="0;1" dur="0.27932960893854747s" begin="-0.228542407313357s" repeatCount="indefinite"></animate>
  </rect>
</g><g transform="rotate(65.45454545454545 50 50)">
  <rect x="47.5" y="26.5" rx="2.5" ry="5.5" width="5" height="11" fill="#ede327">
    <animate attributeName="opacity" values="1;0" keyTimes="0;1" dur="0.27932960893854747s" begin="-0.2031488065007618s" repeatCount="indefinite"></animate>
  </rect>
</g><g transform="rotate(98.18181818181819 50 50)">
  <rect x="47.5" y="26.5" rx="2.5" ry="5.5" width="5" height="11" fill="#ede327">
    <animate attributeName="opacity" values="1;0" keyTimes="0;1" dur="0.27932960893854747s" begin="-0.17775520568816658s" repeatCount="indefinite"></animate>
  </rect>
</g><g transform="rotate(130.9090909090909 50 50)">
  <rect x="47.5" y="26.5" rx="2.5" ry="5.5" width="5" height="11" fill="#ede327">
    <animate attributeName="opacity" values="1;0" keyTimes="0;1" dur="0.27932960893854747s" begin="-0.15236160487557135s" repeatCount="indefinite"></animate>
  </rect>
</g><g transform="rotate(163.63636363636363 50 50)">
  <rect x="47.5" y="26.5" rx="2.5" ry="5.5" width="5" height="11" fill="#ede327">
    <animate attributeName="opacity" values="1;0" keyTimes="0;1" dur="0.27932960893854747s" begin="-0.12696800406297612s" repeatCount="indefinite"></animate>
  </rect>
</g><g transform="rotate(196.36363636363637 50 50)">
  <rect x="47.5" y="26.5" rx="2.5" ry="5.5" width="5" height="11" fill="#ede327">
    <animate attributeName="opacity" values="1;0" keyTimes="0;1" dur="0.27932960893854747s" begin="-0.1015744032503809s" repeatCount="indefinite"></animate>
  </rect>
</g><g transform="rotate(229.0909090909091 50 50)">
  <rect x="47.5" y="26.5" rx="2.5" ry="5.5" width="5" height="11" fill="#ede327">
    <animate attributeName="opacity" values="1;0" keyTimes="0;1" dur="0.27932960893854747s" begin="-0.07618080243778567s" repeatCount="indefinite"></animate>
  </rect>
</g><g transform="rotate(261.8181818181818 50 50)">
  <rect x="47.5" y="26.5" rx="2.5" ry="5.5" width="5" height="11" fill="#ede327">
    <animate attributeName="opacity" values="1;0" keyTimes="0;1" dur="0.27932960893854747s" begin="-0.05078720162519045s" repeatCount="indefinite"></animate>
  </rect>
</g><g transform="rotate(294.54545454545456 50 50)">
  <rect x="47.5" y="26.5" rx="2.5" ry="5.5" width="5" height="11" fill="#ede327">
    <animate attributeName="opacity" values="1;0" keyTimes="0;1" dur="0.27932960893854747s" begin="-0.025393600812595226s" repeatCount="indefinite"></animate>
  </rect>
</g><g transform="rotate(327.27272727272725 50 50)">
  <rect x="47.5" y="26.5" rx="2.5" ry="5.5" width="5" height="11" fill="#ede327">
    <animate attributeName="opacity" values="1;0" keyTimes="0;1" dur="0.27932960893854747s" begin="0s" repeatCount="indefinite"></animate>
  </rect>
</g>
<!-- [ldio] generated by https://loading.io/ --></svg>